<svg width="24" height="24" viewBox="0 0 24 24" fill="none" xmlns="http://www.w3.org/2000/svg">
<path d="M12.0001 14.625C13.1392 14.625 14.0626 13.7016 14.0626 12.5625C14.0626 11.4234 13.1392 10.5 12.0001 10.5C10.861 10.5 9.93762 11.4234 9.93762 12.5625C9.93762 13.7016 10.861 14.625 12.0001 14.625ZM12.0001 14.625V22.875M17.2501 6.75L20.1714 11.9466C20.2324 12.0699 20.2582 12.2077 20.2462 12.3448C20.2341 12.4818 20.1845 12.613 20.1029 12.7238L12.0001 22.875L3.89637 12.7238C3.81476 12.613 3.76521 12.4818 3.75314 12.3448C3.74106 12.2077 3.76694 12.0699 3.82793 11.9466L6.75012 6.75M6.75012 6.75H17.2501M6.75012 6.75L6.75012 3C6.75012 2.80109 6.82914 2.61032 6.96979 2.46967C7.11044 2.32902 7.3012 2.25 7.50012 2.25H16.5001C16.699 2.25 16.8898 2.32902 17.0304 2.46967C17.1711 2.61032 17.2501 2.80109 17.2501 3L17.2501 6.75" stroke="#314158" stroke-width="1.5" stroke-linecap="round" stroke-linejoin="round"/>
</svg>
